<?xml version="1.0" ?><!DOCTYPE svg  PUBLIC '-//W3C//DTD SVG 1.1//EN'  'http://www.w3.org/Graphics/SVG/1.1/DTD/svg11.dtd'><svg enable-background="new 0 0 550 550" id="Layer_1" version="1.1" viewBox="0 0 550 550" xml:space="preserve" xmlns="http://www.w3.org/2000/svg" xmlns:xlink="http://www.w3.org/1999/xlink"><g><g><circle cx="275" cy="275" fill="#2CBDE2" r="256"/><g><path d="M380,299c1.6-7.4,2.5-15,2.5-22.8c0-58.7-47.6-106.3-106.3-106.3c-6.2,0-12.3,0.5-18.2,1.5      c-9.5-6-20.7-9.5-32.8-9.5c-34.1,0-61.7,27.6-61.7,61.7c0,11.4,3.1,22,8.5,31.2c-1.4,6.9-2.1,14.1-2.1,21.4      c0,58.7,47.6,106.3,106.3,106.3c6.6,0,13.1-0.6,19.5-1.8c8.7,4.7,18.6,7.3,29.1,7.3c34.1,0,61.7-27.6,61.7-61.6      C386.4,316.5,384.1,307.3,380,299z" fill="#31A5DD"/><path d="M244.3,206.3L244.3,206.3c-8.9,3.3-15.9,8.1-20.6,14.3c-4.8,6.3-7.2,13.5-7.2,21.5      c0,8.4,2.3,15.6,6.9,21.3c4.5,5.6,10.6,10.1,18.3,13.4c7.5,3.2,16.8,6,27.9,8.3c8.1,1.7,14.7,3.3,19.5,4.8      c4.6,1.4,8.4,3.6,11.3,6.3c2.8,2.6,4.1,5.9,4.1,10.1c0,5.3-2.6,9.7-7.9,13.3c-5.4,3.7-12.6,5.6-21.4,5.6      c-6.4,0-11.6-0.9-15.5-2.8c-3.8-1.8-6.8-4.1-8.9-6.9c-2.2-2.9-4.2-6.5-6.1-10.8c-1.7-4-3.8-7-6.2-9.1c-2.6-2.2-5.7-3.3-9.4-3.3      c-4.5,0-8.2,1.4-11.1,4.1c-2.9,2.8-4.4,6.2-4.4,10c0,6.2,2.3,12.7,6.8,19.2c4.5,6.4,10.4,11.7,17.5,15.5c10,5.3,22.8,8,38.1,8      c12.7,0,23.9-2,33.2-5.8c9.4-3.9,16.7-9.4,21.6-16.4c4.9-7,7.4-15,7.4-23.7c0-7.3-1.4-13.6-4.3-18.7c-2.9-5.1-6.9-9.4-12-12.7      c-5-3.2-11.1-6-18.2-8.3c-7-2.2-14.9-4.3-23.5-6.2c-6.8-1.6-11.8-2.8-14.7-3.6c-2.9-0.8-5.8-1.9-8.6-3.3c-2.7-1.3-4.8-3-6.3-4.8      c-1.4-1.8-2.1-3.8-2.1-6.2c0-4,2.2-7.3,6.6-10.2c4.6-3,10.8-4.5,18.4-4.5c8.2,0,14.2,1.4,17.7,4.1c3.7,2.8,6.9,6.8,9.5,11.8      c2.3,4,4.4,6.7,6.3,8.5c2.1,1.9,5.2,2.9,9.2,2.9c4.3,0,8-1.5,10.9-4.6c2.9-3,4.3-6.5,4.3-10.3c0-4-1.1-8-3.3-12.1      c-2.2-4-5.7-7.9-10.3-11.6c-4.6-3.6-10.6-6.6-17.6-8.7c-7-2.2-15.3-3.3-24.8-3.3C263.6,201.4,253.1,203,244.3,206.3z" fill="#FFFFFF"/></g></g></g></svg>